<?xml version="1.0" encoding="UTF-8" standalone="no"?>
<svg
   xmlns:dc="http://purl.org/dc/elements/1.1/"
   xmlns:cc="http://creativecommons.org/ns#"
   xmlns:rdf="http://www.w3.org/1999/02/22-rdf-syntax-ns#"
   xmlns:svg="http://www.w3.org/2000/svg"
   xmlns="http://www.w3.org/2000/svg"
   xmlns:sodipodi="http://sodipodi.sourceforge.net/DTD/sodipodi-0.dtd"
   xmlns:inkscape="http://www.inkscape.org/namespaces/inkscape"
   version="1.1"
   id="svg2"
   xml:space="preserve"
   width="400"
   height="400"
   viewBox="0 0 400 400"
   sodipodi:docname="taco-meter.svg"
   inkscape:version="1.0.2-2 (e86c870879, 2021-01-15)"
   inkscape:export-filename="C:\Users\yamada\GD\sf\GTD\projects\programming\mywww\tcai-radiology\image\taco-meter90.png"
   inkscape:export-xdpi="96"
   inkscape:export-ydpi="96"><metadata
     id="metadata8"><rdf:RDF><cc:Work
         rdf:about=""><dc:format>image/svg+xml</dc:format><dc:type
           rdf:resource="http://purl.org/dc/dcmitype/StillImage" /><dc:title /></cc:Work></rdf:RDF></metadata><defs
     id="defs6"><clipPath
       clipPathUnits="userSpaceOnUse"
       id="clipPath18"><path
         d="M 0,300 H 300 V 0 H 0 Z"
         id="path16" /></clipPath></defs><sodipodi:namedview
     pagecolor="#ffffff"
     bordercolor="#666666"
     borderopacity="1"
     objecttolerance="10"
     gridtolerance="10"
     guidetolerance="10"
     inkscape:pageopacity="0"
     inkscape:pageshadow="2"
     inkscape:window-width="2124"
     inkscape:window-height="1476"
     id="namedview4"
     showgrid="false"
     inkscape:zoom="2.52"
     inkscape:cx="201.75106"
     inkscape:cy="169.53052"
     inkscape:window-x="496"
     inkscape:window-y="261"
     inkscape:window-maximized="0"
     inkscape:current-layer="g10"
     inkscape:document-rotation="0" /><g
     id="g10"
     inkscape:groupmode="layer"
     inkscape:label="14774"
     transform="matrix(1.3333333,0,0,-1.3333333,0,400)"><g
       id="g20"
       transform="translate(150,110.0039)"><path
         d="m 0,0 c 3.325,0 6.021,2.695 6.021,6.021 0,3.325 -2.696,6.02 -6.021,6.02 -3.325,0 -6.021,-2.695 -6.021,-6.02 C -6.021,2.695 -3.325,0 0,0"
         style="fill:#454140;fill-opacity:1;fill-rule:nonzero;stroke:none"
         id="path22" /></g><g
       id="g24"
       transform="translate(249.4727,77.2256)"><path
         d="m 0,0 h -199.914 c -3.919,12.923 -5.916,24.355 -6.242,35.549 h 21.536 v 6.5 h -21.548 c 0.512,17.057 5.044,33.122 12.682,47.276 l 18.649,-10.767 3.25,5.629 -18.637,10.76 c 8.71,14.026 20.577,25.893 34.603,34.603 l 10.76,-18.637 5.629,3.25 -10.767,18.649 c 14.154,7.638 30.219,12.17 47.276,12.683 v -21.549 h 6.5 v 21.549 c 17.058,-0.513 33.122,-5.045 47.277,-12.683 l -10.768,-18.649 5.629,-3.25 10.76,18.637 c 14.026,-8.71 25.893,-20.577 34.603,-34.603 l -18.636,-10.76 3.25,-5.629 18.649,10.767 C 2.179,75.171 6.711,59.106 7.224,42.049 h -21.549 v -6.5 H 7.223 C 6.858,23.293 4.438,11.359 0,0 m -99.473,152.049 c -62.446,0 -113.25,-50.804 -113.25,-113.25 0,-13.572 2.325,-27.245 7.315,-43.028 L -204.69,-6.5 H 4.367 l 0.831,2.007 c 5.693,13.746 8.579,28.311 8.579,43.292 0,62.446 -50.803,113.25 -113.25,113.25"
         style="fill:#454140;fill-opacity:1;fill-rule:nonzero;stroke:none"
         id="path26" /></g><path
       d="m 158.45254,106.09231 -0.85062,-0.65639 0.006,-0.007 c -0.90575,-0.69064 -1.88396,-1.25033 -2.92211,-1.66474 -3.128,-1.24916 -6.55534,-1.20582 -9.65101,0.12297 -3.09443,1.33039 -5.48877,3.78208 -6.73668,6.91163 -2.57913,6.45719 0.57808,13.80936 7.0354,16.38708 1.03616,0.41347 2.13145,0.6823 3.26469,0.80536 l 5.8e-4,-0.009 1.07072,0.10992 43.04873,4.43522 z m 48.31235,32.045 c -0.53887,1.34881 -1.90599,2.17633 -3.35232,2.02752 l -55.27193,-5.69622 c -1.80585,-0.17363 -3.5573,-0.58373 -5.21753,-1.24643 -9.78654,-3.90769 -14.56989,-15.04806 -10.66157,-24.83381 1.26123,-3.15788 3.29045,-5.86293 5.89125,-7.91197 1.30396,-1.027261 2.75137,-1.89025 4.31866,-2.56226 4.68993,-2.013616 9.88395,-2.079889 14.62451,-0.186542 1.66427,0.664599 3.21759,1.574514 4.64577,2.692462 l 43.9904,33.93895 c 1.14941,0.8869 1.57164,2.42949 1.03276,3.77831"
       style="fill:#454140;fill-opacity:1;fill-rule:nonzero;stroke:none"
       id="path30" /><text
       xml:space="preserve"
       style="font-style:normal;font-weight:normal;font-size:29.5039px;line-height:1.25;font-family:sans-serif;fill:#000000;fill-opacity:1;stroke:none;stroke-width:0.737599"
       x="118.78319"
       y="-235.7068"
       id="text17"
       transform="scale(1,-1)"><tspan
         sodipodi:role="line"
         id="tspan15"
         x="118.78319"
         y="-235.7068"
         style="stroke-width:0.737599">0.75</tspan></text><text
       xml:space="preserve"
       style="font-style:normal;font-weight:normal;font-size:29.5039px;line-height:1.25;font-family:sans-serif;fill:#000000;fill-opacity:1;stroke:none;stroke-width:0.737599"
       x="267.44885"
       y="-107.73418"
       id="text17-2"
       transform="scale(1,-1)"><tspan
         sodipodi:role="line"
         id="tspan15-6"
         x="267.44885"
         y="-107.73418"
         style="stroke-width:0.737599">1.0</tspan></text><text
       xml:space="preserve"
       style="font-style:normal;font-weight:normal;font-size:29.5039px;line-height:1.25;font-family:sans-serif;fill:#000000;fill-opacity:1;stroke:none;stroke-width:0.737599"
       x="-16.777332"
       y="-106.54369"
       id="text17-4"
       transform="scale(1,-1)"><tspan
         sodipodi:role="line"
         id="tspan15-1"
         x="-16.777332"
         y="-106.54369"
         style="stroke-width:0.737599">0.5</tspan></text></g></svg>
